<?xml version="1.0" encoding="UTF-8" standalone="no"?>
<!-- Created with Inkscape (http://www.inkscape.org/) -->

<svg
   width="24"
   height="24"
   viewBox="0 0 6.3500001 6.3500001"
   version="1.1"
   id="svg1"
   xmlns="http://www.w3.org/2000/svg"
   xmlns:svg="http://www.w3.org/2000/svg">
  <defs
     id="defs1" />
  <g
     id="layer1">
    <path
       id="rect1"
       style="fill:#000000;stroke-width:2.04044;stroke-linecap:round;stroke-linejoin:round;paint-order:stroke fill markers"
       d="M 1.5875,0 V 0.26458334 H 1.3229167 V 0.52916668 H 1.0583334 V 0.79375001 H 0.79375001 V 1.0583334 H 0.52916668 V 1.3229167 H 0.26458334 V 1.5875 H 0 V 4.7625001 H 0.26458334 V 5.0270834 H 0.52916668 V 5.2916668 H 0.79375001 V 5.5562501 H 1.0583334 V 5.8208334 H 1.3229167 V 6.0854168 H 1.5875 V 6.3500001 H 2.1166667 V 6.0854168 H 2.38125 V 5.8208334 H 2.6458334 V 5.5562501 H 2.9104167 V 5.2916668 H 3.4395834 V 5.5562501 H 3.7041667 V 5.8208334 H 3.9687501 V 6.0854168 H 4.2333334 V 6.3500001 H 4.7625001 V 6.0854168 H 5.0270834 V 5.8208334 H 5.2916668 V 5.5562501 H 5.5562501 V 5.2916668 H 5.8208334 V 5.0270834 H 6.0854168 V 4.7625001 H 6.3500001 V 1.5875 H 6.0854168 V 1.3229167 H 5.8208334 V 1.0583334 H 5.5562501 V 0.79375001 H 5.2916668 V 0.52916668 H 5.0270834 V 0.26458334 H 4.7625001 V 0 H 4.2333334 V 0.26458334 H 3.9687501 V 0.52916668 H 3.7041667 V 0.79375001 H 3.4395834 V 1.0583334 H 2.9104167 V 0.79375001 H 2.6458334 V 0.52916668 H 2.38125 V 0.26458334 H 2.1166667 V 0 Z m 0,1.0583334 H 2.1166667 V 1.3229167 H 2.38125 V 1.5875 H 2.6458334 V 1.8520834 H 2.9104167 V 2.1166667 H 3.4395834 V 1.8520834 H 3.7041667 V 1.5875 H 3.9687501 V 1.3229167 H 4.2333334 V 1.0583334 H 4.7625001 V 1.3229167 H 5.0270834 V 1.5875 H 5.2916668 V 1.8520834 H 5.5562501 V 4.4979167 H 5.2916668 V 4.7625001 H 5.0270834 V 5.0270834 H 4.7625001 V 5.2916668 H 4.2333334 V 5.0270834 H 3.9687501 V 4.7625001 H 3.7041667 V 4.4979167 H 3.4395834 V 4.2333334 H 2.9104167 V 4.4979167 H 2.6458334 V 4.7625001 H 2.38125 V 5.0270834 H 2.1166667 V 5.2916668 H 1.5875 V 5.0270834 H 1.3229167 V 4.7625001 H 1.0583334 V 4.4979167 H 0.79375001 V 1.8520834 H 1.0583334 V 1.5875 H 1.3229167 V 1.3229167 H 1.5875 Z" />
  </g>
</svg>
