<?xml version="1.0" encoding="UTF-8" standalone="no"?>
<!-- Created with Inkscape (http://www.inkscape.org/) -->

<svg
   width="24"
   height="24"
   viewBox="0 0 6.3500001 6.3500001"
   version="1.1"
   id="svg1"
   xmlns="http://www.w3.org/2000/svg"
   xmlns:svg="http://www.w3.org/2000/svg">
  <defs
     id="defs1" />
  <g
     id="layer1">
    <path
       id="rect1"
       style="fill:#000000;stroke-width:1.66601;stroke-linecap:round;stroke-linejoin:round;paint-order:stroke fill markers"
       d="M 0.52916668,0 V 0.26458334 H 0.26458334 V 0.52916668 H 0 v 1.58750002 2.1166667 1.5875 h 0.26458334 v 0.2645834 h 0.26458334 v 0.2645833 h 1.58750002 2.1166667 1.5875 V 6.0854168 H 6.0854168 V 5.8208334 H 6.3500001 V 4.2333334 2.1166667 0.52916668 H 6.0854168 V 0.26458334 H 5.8208334 V 0 h -1.5875 -2.1166667 z M 1.3229167,0.79375001 h 0.79375 2.1166667 0.79375 V 1.0583334 h 0.2645834 v 0.2645833 h 0.2645833 v 0.79375 2.1166667 0.79375 H 5.2916668 V 5.2916668 H 5.0270834 v 0.2645833 h -0.79375 -2.1166667 -0.79375 V 5.2916668 H 1.0583334 V 5.0270834 H 0.79375001 v -0.79375 -2.1166667 -0.79375 H 1.0583334 V 1.0583334 h 0.2645833 z" />
  </g>
</svg>
