<?xml version="1.0" encoding="UTF-8" standalone="no"?>
<svg
   version="1.1"
   id="Layer_1"
   x="0px"
   y="0px"
   width="160"
   height="160"
   viewBox="0 0 160 160"
   enable-background="new 0 0 160 160"
   xml:space="preserve"
   xmlns="http://www.w3.org/2000/svg"
   xmlns:svg="http://www.w3.org/2000/svg"><defs
   id="defs487" />
<rect
   x="0"
   y="0"
   width="1160"
   height="1160"
   fill="#ffffff"
   id="rect1" /><g
   transform="matrix(0.15,0,0,0.15,5,5)"
   id="g487"><g
     transform="matrix(0.4,0,0,0.4,480,0)"
     id="g3"><g
       style="fill:#000000"
       id="g2">
<rect
   width="100"
   height="100"
   id="rect2"
   x="0"
   y="0" />
</g></g><g
     transform="matrix(0.4,0,0,0.4,520,0)"
     id="g5"><g
       style="fill:#000000"
       id="g4">
<rect
   width="100"
   height="100"
   id="rect3"
   x="0"
   y="0" />
</g></g><g
     transform="matrix(0.4,0,0,0.4,640,0)"
     id="g7"><g
       style="fill:#000000"
       id="g6">
<rect
   width="100"
   height="100"
   id="rect5"
   x="0"
   y="0" />
</g></g><g
     transform="matrix(0.4,0,0,0.4,360,40)"
     id="g9"><g
       style="fill:#000000"
       id="g8">
<rect
   width="100"
   height="100"
   id="rect7"
   x="0"
   y="0" />
</g></g><g
     transform="matrix(0.4,0,0,0.4,400,40)"
     id="g11"><g
       style="fill:#000000"
       id="g10">
<rect
   width="100"
   height="100"
   id="rect9"
   x="0"
   y="0" />
</g></g><g
     transform="matrix(0.4,0,0,0.4,440,40)"
     id="g13"><g
       style="fill:#000000"
       id="g12">
<rect
   width="100"
   height="100"
   id="rect11"
   x="0"
   y="0" />
</g></g><g
     transform="matrix(0.4,0,0,0.4,560,40)"
     id="g15"><g
       style="fill:#000000"
       id="g14">
<rect
   width="100"
   height="100"
   id="rect13"
   x="0"
   y="0" />
</g></g><g
     transform="matrix(0.4,0,0,0.4,600,40)"
     id="g17"><g
       style="fill:#000000"
       id="g16">
<rect
   width="100"
   height="100"
   id="rect15"
   x="0"
   y="0" />
</g></g><g
     transform="matrix(0.4,0,0,0.4,320,80)"
     id="g19"><g
       style="fill:#000000"
       id="g18">
<rect
   width="100"
   height="100"
   id="rect17"
   x="0"
   y="0" />
</g></g><g
     transform="matrix(0.4,0,0,0.4,400,80)"
     id="g21"><g
       style="fill:#000000"
       id="g20">
<rect
   width="100"
   height="100"
   id="rect19"
   x="0"
   y="0" />
</g></g><g
     transform="matrix(0.4,0,0,0.4,440,80)"
     id="g23"><g
       style="fill:#000000"
       id="g22">
<rect
   width="100"
   height="100"
   id="rect21"
   x="0"
   y="0" />
</g></g><g
     transform="matrix(0.4,0,0,0.4,480,80)"
     id="g25"><g
       style="fill:#000000"
       id="g24">
<rect
   width="100"
   height="100"
   id="rect23"
   x="0"
   y="0" />
</g></g><g
     transform="matrix(0.4,0,0,0.4,600,80)"
     id="g27"><g
       style="fill:#000000"
       id="g26">
<rect
   width="100"
   height="100"
   id="rect25"
   x="0"
   y="0" />
</g></g><g
     transform="matrix(0.4,0,0,0.4,320,120)"
     id="g29"><g
       style="fill:#000000"
       id="g28">
<rect
   width="100"
   height="100"
   id="rect27"
   x="0"
   y="0" />
</g></g><g
     transform="matrix(0.4,0,0,0.4,360,120)"
     id="g31"><g
       style="fill:#000000"
       id="g30">
<rect
   width="100"
   height="100"
   id="rect29"
   x="0"
   y="0" />
</g></g><g
     transform="matrix(0.4,0,0,0.4,440,120)"
     id="g33"><g
       style="fill:#000000"
       id="g32">
<rect
   width="100"
   height="100"
   id="rect31"
   x="0"
   y="0" />
</g></g><g
     transform="matrix(0.4,0,0,0.4,520,120)"
     id="g35"><g
       style="fill:#000000"
       id="g34">
<rect
   width="100"
   height="100"
   id="rect33"
   x="0"
   y="0" />
</g></g><g
     transform="matrix(0.4,0,0,0.4,560,120)"
     id="g37"><g
       style="fill:#000000"
       id="g36">
<rect
   width="100"
   height="100"
   id="rect35"
   x="0"
   y="0" />
</g></g><g
     transform="matrix(0.4,0,0,0.4,600,120)"
     id="g39"><g
       style="fill:#000000"
       id="g38">
<rect
   width="100"
   height="100"
   id="rect37"
   x="0"
   y="0" />
</g></g><g
     transform="matrix(0.4,0,0,0.4,640,120)"
     id="g41"><g
       style="fill:#000000"
       id="g40">
<rect
   width="100"
   height="100"
   id="rect39"
   x="0"
   y="0" />
</g></g><g
     transform="matrix(0.4,0,0,0.4,320,160)"
     id="g43"><g
       style="fill:#000000"
       id="g42">
<rect
   width="100"
   height="100"
   id="rect41"
   x="0"
   y="0" />
</g></g><g
     transform="matrix(0.4,0,0,0.4,440,160)"
     id="g45"><g
       style="fill:#000000"
       id="g44">
<rect
   width="100"
   height="100"
   id="rect43"
   x="0"
   y="0" />
</g></g><g
     transform="matrix(0.4,0,0,0.4,480,160)"
     id="g47"><g
       style="fill:#000000"
       id="g46">
<rect
   width="100"
   height="100"
   id="rect45"
   x="0"
   y="0" />
</g></g><g
     transform="matrix(0.4,0,0,0.4,640,160)"
     id="g49"><g
       style="fill:#000000"
       id="g48">
<rect
   width="100"
   height="100"
   id="rect47"
   x="0"
   y="0" />
</g></g><g
     transform="matrix(0.4,0,0,0.4,320,200)"
     id="g51"><g
       style="fill:#000000"
       id="g50">
<rect
   width="100"
   height="100"
   id="rect49"
   x="0"
   y="0" />
</g></g><g
     transform="matrix(0.4,0,0,0.4,440,200)"
     id="g53"><g
       style="fill:#000000"
       id="g52">
<rect
   width="100"
   height="100"
   id="rect51"
   x="0"
   y="0" />
</g></g><g
     transform="matrix(0.4,0,0,0.4,480,200)"
     id="g55"><g
       style="fill:#000000"
       id="g54">
<rect
   width="100"
   height="100"
   id="rect53"
   x="0"
   y="0" />
</g></g><g
     transform="matrix(0.4,0,0,0.4,560,200)"
     id="g57"><g
       style="fill:#000000"
       id="g56">
<rect
   width="100"
   height="100"
   id="rect55"
   x="0"
   y="0" />
</g></g><g
     transform="matrix(0.4,0,0,0.4,600,200)"
     id="g59"><g
       style="fill:#000000"
       id="g58">
<rect
   width="100"
   height="100"
   id="rect57"
   x="0"
   y="0" />
</g></g><g
     transform="matrix(0.4,0,0,0.4,640,200)"
     id="g61"><g
       style="fill:#000000"
       id="g60">
<rect
   width="100"
   height="100"
   id="rect59"
   x="0"
   y="0" />
</g></g><g
     transform="matrix(0.4,0,0,0.4,320,240)"
     id="g63"><g
       style="fill:#000000"
       id="g62">
<rect
   width="100"
   height="100"
   id="rect61"
   x="0"
   y="0" />
</g></g><g
     transform="matrix(0.4,0,0,0.4,400,240)"
     id="g65"><g
       style="fill:#000000"
       id="g64">
<rect
   width="100"
   height="100"
   id="rect63"
   x="0"
   y="0" />
</g></g><g
     transform="matrix(0.4,0,0,0.4,480,240)"
     id="g67"><g
       style="fill:#000000"
       id="g66">
<rect
   width="100"
   height="100"
   id="rect65"
   x="0"
   y="0" />
</g></g><g
     transform="matrix(0.4,0,0,0.4,560,240)"
     id="g69"><g
       style="fill:#000000"
       id="g68">
<rect
   width="100"
   height="100"
   id="rect67"
   x="0"
   y="0" />
</g></g><g
     transform="matrix(0.4,0,0,0.4,640,240)"
     id="g71"><g
       style="fill:#000000"
       id="g70">
<rect
   width="100"
   height="100"
   id="rect69"
   x="0"
   y="0" />
</g></g><g
     transform="matrix(0.4,0,0,0.4,320,280)"
     id="g73"><g
       style="fill:#000000"
       id="g72">
<rect
   width="100"
   height="100"
   id="rect71"
   x="0"
   y="0" />
</g></g><g
     transform="matrix(0.4,0,0,0.4,440,280)"
     id="g75"><g
       style="fill:#000000"
       id="g74">
<rect
   width="100"
   height="100"
   id="rect73"
   x="0"
   y="0" />
</g></g><g
     transform="matrix(0.4,0,0,0.4,560,280)"
     id="g77"><g
       style="fill:#000000"
       id="g76">
<rect
   width="100"
   height="100"
   id="rect75"
   x="0"
   y="0" />
</g></g><g
     transform="matrix(0.4,0,0,0.4,600,280)"
     id="g79"><g
       style="fill:#000000"
       id="g78">
<rect
   width="100"
   height="100"
   id="rect77"
   x="0"
   y="0" />
</g></g><g
     transform="matrix(0.4,0,0,0.4,640,280)"
     id="g81"><g
       style="fill:#000000"
       id="g80">
<rect
   width="100"
   height="100"
   id="rect79"
   x="0"
   y="0" />
</g></g><g
     transform="matrix(0.4,0,0,0.4,0,320)"
     id="g83"><g
       style="fill:#000000"
       id="g82">
<rect
   width="100"
   height="100"
   id="rect81"
   x="0"
   y="0" />
</g></g><g
     transform="matrix(0.4,0,0,0.4,80,320)"
     id="g85"><g
       style="fill:#000000"
       id="g84">
<rect
   width="100"
   height="100"
   id="rect83"
   x="0"
   y="0" />
</g></g><g
     transform="matrix(0.4,0,0,0.4,120,320)"
     id="g87"><g
       style="fill:#000000"
       id="g86">
<rect
   width="100"
   height="100"
   id="rect85"
   x="0"
   y="0" />
</g></g><g
     transform="matrix(0.4,0,0,0.4,160,320)"
     id="g89"><g
       style="fill:#000000"
       id="g88">
<rect
   width="100"
   height="100"
   id="rect87"
   x="0"
   y="0" />
</g></g><g
     transform="matrix(0.4,0,0,0.4,200,320)"
     id="g91"><g
       style="fill:#000000"
       id="g90">
<rect
   width="100"
   height="100"
   id="rect89"
   x="0"
   y="0" />
</g></g><g
     transform="matrix(0.4,0,0,0.4,240,320)"
     id="g93"><g
       style="fill:#000000"
       id="g92">
<rect
   width="100"
   height="100"
   id="rect91"
   x="0"
   y="0" />
</g></g><g
     transform="matrix(0.4,0,0,0.4,400,320)"
     id="g95"><g
       style="fill:#000000"
       id="g94">
<rect
   width="100"
   height="100"
   id="rect93"
   x="0"
   y="0" />
</g></g><g
     transform="matrix(0.4,0,0,0.4,480,320)"
     id="g97"><g
       style="fill:#000000"
       id="g96">
<rect
   width="100"
   height="100"
   id="rect95"
   x="0"
   y="0" />
</g></g><g
     transform="matrix(0.4,0,0,0.4,520,320)"
     id="g99"><g
       style="fill:#000000"
       id="g98">
<rect
   width="100"
   height="100"
   id="rect97"
   x="0"
   y="0" />
</g></g><g
     transform="matrix(0.4,0,0,0.4,720,320)"
     id="g101"><g
       style="fill:#000000"
       id="g100">
<rect
   width="100"
   height="100"
   id="rect99"
   x="0"
   y="0" />
</g></g><g
     transform="matrix(0.4,0,0,0.4,760,320)"
     id="g103"><g
       style="fill:#000000"
       id="g102">
<rect
   width="100"
   height="100"
   id="rect101"
   x="0"
   y="0" />
</g></g><g
     transform="matrix(0.4,0,0,0.4,800,320)"
     id="g105"><g
       style="fill:#000000"
       id="g104">
<rect
   width="100"
   height="100"
   id="rect103"
   x="0"
   y="0" />
</g></g><g
     transform="matrix(0.4,0,0,0.4,840,320)"
     id="g107"><g
       style="fill:#000000"
       id="g106">
<rect
   width="100"
   height="100"
   id="rect105"
   x="0"
   y="0" />
</g></g><g
     transform="matrix(0.4,0,0,0.4,880,320)"
     id="g109"><g
       style="fill:#000000"
       id="g108">
<rect
   width="100"
   height="100"
   id="rect107"
   x="0"
   y="0" />
</g></g><g
     transform="matrix(0.4,0,0,0.4,0,360)"
     id="g111"><g
       style="fill:#000000"
       id="g110">
<rect
   width="100"
   height="100"
   id="rect109"
   x="0"
   y="0" />
</g></g><g
     transform="matrix(0.4,0,0,0.4,40,360)"
     id="g113"><g
       style="fill:#000000"
       id="g112">
<rect
   width="100"
   height="100"
   id="rect111"
   x="0"
   y="0" />
</g></g><g
     transform="matrix(0.4,0,0,0.4,80,360)"
     id="g115"><g
       style="fill:#000000"
       id="g114">
<rect
   width="100"
   height="100"
   id="rect113"
   x="0"
   y="0" />
</g></g><g
     transform="matrix(0.4,0,0,0.4,280,360)"
     id="g117"><g
       style="fill:#000000"
       id="g116">
<rect
   width="100"
   height="100"
   id="rect115"
   x="0"
   y="0" />
</g></g><g
     transform="matrix(0.4,0,0,0.4,320,360)"
     id="g119"><g
       style="fill:#000000"
       id="g118">
<rect
   width="100"
   height="100"
   id="rect117"
   x="0"
   y="0" />
</g></g><g
     transform="matrix(0.4,0,0,0.4,360,360)"
     id="g121"><g
       style="fill:#000000"
       id="g120">
<rect
   width="100"
   height="100"
   id="rect119"
   x="0"
   y="0" />
</g></g><g
     transform="matrix(0.4,0,0,0.4,400,360)"
     id="g123"><g
       style="fill:#000000"
       id="g122">
<rect
   width="100"
   height="100"
   id="rect121"
   x="0"
   y="0" />
</g></g><g
     transform="matrix(0.4,0,0,0.4,440,360)"
     id="g125"><g
       style="fill:#000000"
       id="g124">
<rect
   width="100"
   height="100"
   id="rect123"
   x="0"
   y="0" />
</g></g><g
     transform="matrix(0.4,0,0,0.4,520,360)"
     id="g127"><g
       style="fill:#000000"
       id="g126">
<rect
   width="100"
   height="100"
   id="rect125"
   x="0"
   y="0" />
</g></g><g
     transform="matrix(0.4,0,0,0.4,640,360)"
     id="g129"><g
       style="fill:#000000"
       id="g128">
<rect
   width="100"
   height="100"
   id="rect127"
   x="0"
   y="0" />
</g></g><g
     transform="matrix(0.4,0,0,0.4,680,360)"
     id="g131"><g
       style="fill:#000000"
       id="g130">
<rect
   width="100"
   height="100"
   id="rect129"
   x="0"
   y="0" />
</g></g><g
     transform="matrix(0.4,0,0,0.4,760,360)"
     id="g133"><g
       style="fill:#000000"
       id="g132">
<rect
   width="100"
   height="100"
   id="rect131"
   x="0"
   y="0" />
</g></g><g
     transform="matrix(0.4,0,0,0.4,920,360)"
     id="g135"><g
       style="fill:#000000"
       id="g134">
<rect
   width="100"
   height="100"
   id="rect133"
   x="0"
   y="0" />
</g></g><g
     transform="matrix(0.4,0,0,0.4,0,400)"
     id="g137"><g
       style="fill:#000000"
       id="g136">
<rect
   width="100"
   height="100"
   id="rect135"
   x="0"
   y="0" />
</g></g><g
     transform="matrix(0.4,0,0,0.4,80,400)"
     id="g139"><g
       style="fill:#000000"
       id="g138">
<rect
   width="100"
   height="100"
   id="rect137"
   x="0"
   y="0" />
</g></g><g
     transform="matrix(0.4,0,0,0.4,120,400)"
     id="g141"><g
       style="fill:#000000"
       id="g140">
<rect
   width="100"
   height="100"
   id="rect139"
   x="0"
   y="0" />
</g></g><g
     transform="matrix(0.4,0,0,0.4,240,400)"
     id="g143"><g
       style="fill:#000000"
       id="g142">
<rect
   width="100"
   height="100"
   id="rect141"
   x="0"
   y="0" />
</g></g><g
     transform="matrix(0.4,0,0,0.4,320,400)"
     id="g145"><g
       style="fill:#000000"
       id="g144">
<rect
   width="100"
   height="100"
   id="rect143"
   x="0"
   y="0" />
</g></g><g
     transform="matrix(0.4,0,0,0.4,360,400)"
     id="g147"><g
       style="fill:#000000"
       id="g146">
<rect
   width="100"
   height="100"
   id="rect145"
   x="0"
   y="0" />
</g></g><g
     transform="matrix(0.4,0,0,0.4,440,400)"
     id="g149"><g
       style="fill:#000000"
       id="g148">
<rect
   width="100"
   height="100"
   id="rect147"
   x="0"
   y="0" />
</g></g><g
     transform="matrix(0.4,0,0,0.4,480,400)"
     id="g151"><g
       style="fill:#000000"
       id="g150">
<rect
   width="100"
   height="100"
   id="rect149"
   x="0"
   y="0" />
</g></g><g
     transform="matrix(0.4,0,0,0.4,520,400)"
     id="g153"><g
       style="fill:#000000"
       id="g152">
<rect
   width="100"
   height="100"
   id="rect151"
   x="0"
   y="0" />
</g></g><g
     transform="matrix(0.4,0,0,0.4,560,400)"
     id="g155"><g
       style="fill:#000000"
       id="g154">
<rect
   width="100"
   height="100"
   id="rect153"
   x="0"
   y="0" />
</g></g><g
     transform="matrix(0.4,0,0,0.4,600,400)"
     id="g157"><g
       style="fill:#000000"
       id="g156">
<rect
   width="100"
   height="100"
   id="rect155"
   x="0"
   y="0" />
</g></g><g
     transform="matrix(0.4,0,0,0.4,640,400)"
     id="g159"><g
       style="fill:#000000"
       id="g158">
<rect
   width="100"
   height="100"
   id="rect157"
   x="0"
   y="0" />
</g></g><g
     transform="matrix(0.4,0,0,0.4,680,400)"
     id="g161"><g
       style="fill:#000000"
       id="g160">
<rect
   width="100"
   height="100"
   id="rect159"
   x="0"
   y="0" />
</g></g><g
     transform="matrix(0.4,0,0,0.4,720,400)"
     id="g163"><g
       style="fill:#000000"
       id="g162">
<rect
   width="100"
   height="100"
   id="rect161"
   x="0"
   y="0" />
</g></g><g
     transform="matrix(0.4,0,0,0.4,760,400)"
     id="g165"><g
       style="fill:#000000"
       id="g164">
<rect
   width="100"
   height="100"
   id="rect163"
   x="0"
   y="0" />
</g></g><g
     transform="matrix(0.4,0,0,0.4,800,400)"
     id="g167"><g
       style="fill:#000000"
       id="g166">
<rect
   width="100"
   height="100"
   id="rect165"
   x="0"
   y="0" />
</g></g><g
     transform="matrix(0.4,0,0,0.4,840,400)"
     id="g169"><g
       style="fill:#000000"
       id="g168">
<rect
   width="100"
   height="100"
   id="rect167"
   x="0"
   y="0" />
</g></g><g
     transform="matrix(0.4,0,0,0.4,920,400)"
     id="g171"><g
       style="fill:#000000"
       id="g170">
<rect
   width="100"
   height="100"
   id="rect169"
   x="0"
   y="0" />
</g></g><g
     transform="matrix(0.4,0,0,0.4,960,400)"
     id="g173"><g
       style="fill:#000000"
       id="g172">
<rect
   width="100"
   height="100"
   id="rect171"
   x="0"
   y="0" />
</g></g><g
     transform="matrix(0.4,0,0,0.4,0,440)"
     id="g175"><g
       style="fill:#000000"
       id="g174">
<rect
   width="100"
   height="100"
   id="rect173"
   x="0"
   y="0" />
</g></g><g
     transform="matrix(0.4,0,0,0.4,40,440)"
     id="g177"><g
       style="fill:#000000"
       id="g176">
<rect
   width="100"
   height="100"
   id="rect175"
   x="0"
   y="0" />
</g></g><g
     transform="matrix(0.4,0,0,0.4,120,440)"
     id="g179"><g
       style="fill:#000000"
       id="g178">
<rect
   width="100"
   height="100"
   id="rect177"
   x="0"
   y="0" />
</g></g><g
     transform="matrix(0.4,0,0,0.4,160,440)"
     id="g181"><g
       style="fill:#000000"
       id="g180">
<rect
   width="100"
   height="100"
   id="rect179"
   x="0"
   y="0" />
</g></g><g
     transform="matrix(0.4,0,0,0.4,320,440)"
     id="g183"><g
       style="fill:#000000"
       id="g182">
<rect
   width="100"
   height="100"
   id="rect181"
   x="0"
   y="0" />
</g></g><g
     transform="matrix(0.4,0,0,0.4,440,440)"
     id="g185"><g
       style="fill:#000000"
       id="g184">
<rect
   width="100"
   height="100"
   id="rect183"
   x="0"
   y="0" />
</g></g><g
     transform="matrix(0.4,0,0,0.4,600,440)"
     id="g187"><g
       style="fill:#000000"
       id="g186">
<rect
   width="100"
   height="100"
   id="rect185"
   x="0"
   y="0" />
</g></g><g
     transform="matrix(0.4,0,0,0.4,680,440)"
     id="g189"><g
       style="fill:#000000"
       id="g188">
<rect
   width="100"
   height="100"
   id="rect187"
   x="0"
   y="0" />
</g></g><g
     transform="matrix(0.4,0,0,0.4,760,440)"
     id="g191"><g
       style="fill:#000000"
       id="g190">
<rect
   width="100"
   height="100"
   id="rect189"
   x="0"
   y="0" />
</g></g><g
     transform="matrix(0.4,0,0,0.4,960,440)"
     id="g193"><g
       style="fill:#000000"
       id="g192">
<rect
   width="100"
   height="100"
   id="rect191"
   x="0"
   y="0" />
</g></g><g
     transform="matrix(0.4,0,0,0.4,80,480)"
     id="g195"><g
       style="fill:#000000"
       id="g194">
<rect
   width="100"
   height="100"
   id="rect193"
   x="0"
   y="0" />
</g></g><g
     transform="matrix(0.4,0,0,0.4,240,480)"
     id="g197"><g
       style="fill:#000000"
       id="g196">
<rect
   width="100"
   height="100"
   id="rect195"
   x="0"
   y="0" />
</g></g><g
     transform="matrix(0.4,0,0,0.4,400,480)"
     id="g199"><g
       style="fill:#000000"
       id="g198">
<rect
   width="100"
   height="100"
   id="rect197"
   x="0"
   y="0" />
</g></g><g
     transform="matrix(0.4,0,0,0.4,480,480)"
     id="g201"><g
       style="fill:#000000"
       id="g200">
<rect
   width="100"
   height="100"
   id="rect199"
   x="0"
   y="0" />
</g></g><g
     transform="matrix(0.4,0,0,0.4,520,480)"
     id="g203"><g
       style="fill:#000000"
       id="g202">
<rect
   width="100"
   height="100"
   id="rect201"
   x="0"
   y="0" />
</g></g><g
     transform="matrix(0.4,0,0,0.4,560,480)"
     id="g205"><g
       style="fill:#000000"
       id="g204">
<rect
   width="100"
   height="100"
   id="rect203"
   x="0"
   y="0" />
</g></g><g
     transform="matrix(0.4,0,0,0.4,600,480)"
     id="g207"><g
       style="fill:#000000"
       id="g206">
<rect
   width="100"
   height="100"
   id="rect205"
   x="0"
   y="0" />
</g></g><g
     transform="matrix(0.4,0,0,0.4,680,480)"
     id="g209"><g
       style="fill:#000000"
       id="g208">
<rect
   width="100"
   height="100"
   id="rect207"
   x="0"
   y="0" />
</g></g><g
     transform="matrix(0.4,0,0,0.4,720,480)"
     id="g211"><g
       style="fill:#000000"
       id="g210">
<rect
   width="100"
   height="100"
   id="rect209"
   x="0"
   y="0" />
</g></g><g
     transform="matrix(0.4,0,0,0.4,760,480)"
     id="g213"><g
       style="fill:#000000"
       id="g212">
<rect
   width="100"
   height="100"
   id="rect211"
   x="0"
   y="0" />
</g></g><g
     transform="matrix(0.4,0,0,0.4,800,480)"
     id="g215"><g
       style="fill:#000000"
       id="g214">
<rect
   width="100"
   height="100"
   id="rect213"
   x="0"
   y="0" />
</g></g><g
     transform="matrix(0.4,0,0,0.4,880,480)"
     id="g217"><g
       style="fill:#000000"
       id="g216">
<rect
   width="100"
   height="100"
   id="rect215"
   x="0"
   y="0" />
</g></g><g
     transform="matrix(0.4,0,0,0.4,920,480)"
     id="g219"><g
       style="fill:#000000"
       id="g218">
<rect
   width="100"
   height="100"
   id="rect217"
   x="0"
   y="0" />
</g></g><g
     transform="matrix(0.4,0,0,0.4,960,480)"
     id="g221"><g
       style="fill:#000000"
       id="g220">
<rect
   width="100"
   height="100"
   id="rect219"
   x="0"
   y="0" />
</g></g><g
     transform="matrix(0.4,0,0,0.4,0,520)"
     id="g223"><g
       style="fill:#000000"
       id="g222">
<rect
   width="100"
   height="100"
   id="rect221"
   x="0"
   y="0" />
</g></g><g
     transform="matrix(0.4,0,0,0.4,40,520)"
     id="g225"><g
       style="fill:#000000"
       id="g224">
<rect
   width="100"
   height="100"
   id="rect223"
   x="0"
   y="0" />
</g></g><g
     transform="matrix(0.4,0,0,0.4,200,520)"
     id="g227"><g
       style="fill:#000000"
       id="g226">
<rect
   width="100"
   height="100"
   id="rect225"
   x="0"
   y="0" />
</g></g><g
     transform="matrix(0.4,0,0,0.4,400,520)"
     id="g229"><g
       style="fill:#000000"
       id="g228">
<rect
   width="100"
   height="100"
   id="rect227"
   x="0"
   y="0" />
</g></g><g
     transform="matrix(0.4,0,0,0.4,640,520)"
     id="g231"><g
       style="fill:#000000"
       id="g230">
<rect
   width="100"
   height="100"
   id="rect229"
   x="0"
   y="0" />
</g></g><g
     transform="matrix(0.4,0,0,0.4,680,520)"
     id="g233"><g
       style="fill:#000000"
       id="g232">
<rect
   width="100"
   height="100"
   id="rect231"
   x="0"
   y="0" />
</g></g><g
     transform="matrix(0.4,0,0,0.4,760,520)"
     id="g235"><g
       style="fill:#000000"
       id="g234">
<rect
   width="100"
   height="100"
   id="rect233"
   x="0"
   y="0" />
</g></g><g
     transform="matrix(0.4,0,0,0.4,840,520)"
     id="g237"><g
       style="fill:#000000"
       id="g236">
<rect
   width="100"
   height="100"
   id="rect235"
   x="0"
   y="0" />
</g></g><g
     transform="matrix(0.4,0,0,0.4,920,520)"
     id="g239"><g
       style="fill:#000000"
       id="g238">
<rect
   width="100"
   height="100"
   id="rect237"
   x="0"
   y="0" />
</g></g><g
     transform="matrix(0.4,0,0,0.4,0,560)"
     id="g241"><g
       style="fill:#000000"
       id="g240">
<rect
   width="100"
   height="100"
   id="rect239"
   x="0"
   y="0" />
</g></g><g
     transform="matrix(0.4,0,0,0.4,120,560)"
     id="g243"><g
       style="fill:#000000"
       id="g242">
<rect
   width="100"
   height="100"
   id="rect241"
   x="0"
   y="0" />
</g></g><g
     transform="matrix(0.4,0,0,0.4,200,560)"
     id="g245"><g
       style="fill:#000000"
       id="g244">
<rect
   width="100"
   height="100"
   id="rect243"
   x="0"
   y="0" />
</g></g><g
     transform="matrix(0.4,0,0,0.4,240,560)"
     id="g247"><g
       style="fill:#000000"
       id="g246">
<rect
   width="100"
   height="100"
   id="rect245"
   x="0"
   y="0" />
</g></g><g
     transform="matrix(0.4,0,0,0.4,400,560)"
     id="g249"><g
       style="fill:#000000"
       id="g248">
<rect
   width="100"
   height="100"
   id="rect247"
   x="0"
   y="0" />
</g></g><g
     transform="matrix(0.4,0,0,0.4,440,560)"
     id="g251"><g
       style="fill:#000000"
       id="g250">
<rect
   width="100"
   height="100"
   id="rect249"
   x="0"
   y="0" />
</g></g><g
     transform="matrix(0.4,0,0,0.4,480,560)"
     id="g253"><g
       style="fill:#000000"
       id="g252">
<rect
   width="100"
   height="100"
   id="rect251"
   x="0"
   y="0" />
</g></g><g
     transform="matrix(0.4,0,0,0.4,520,560)"
     id="g255"><g
       style="fill:#000000"
       id="g254">
<rect
   width="100"
   height="100"
   id="rect253"
   x="0"
   y="0" />
</g></g><g
     transform="matrix(0.4,0,0,0.4,600,560)"
     id="g257"><g
       style="fill:#000000"
       id="g256">
<rect
   width="100"
   height="100"
   id="rect255"
   x="0"
   y="0" />
</g></g><g
     transform="matrix(0.4,0,0,0.4,680,560)"
     id="g259"><g
       style="fill:#000000"
       id="g258">
<rect
   width="100"
   height="100"
   id="rect257"
   x="0"
   y="0" />
</g></g><g
     transform="matrix(0.4,0,0,0.4,720,560)"
     id="g261"><g
       style="fill:#000000"
       id="g260">
<rect
   width="100"
   height="100"
   id="rect259"
   x="0"
   y="0" />
</g></g><g
     transform="matrix(0.4,0,0,0.4,760,560)"
     id="g263"><g
       style="fill:#000000"
       id="g262">
<rect
   width="100"
   height="100"
   id="rect261"
   x="0"
   y="0" />
</g></g><g
     transform="matrix(0.4,0,0,0.4,800,560)"
     id="g265"><g
       style="fill:#000000"
       id="g264">
<rect
   width="100"
   height="100"
   id="rect263"
   x="0"
   y="0" />
</g></g><g
     transform="matrix(0.4,0,0,0.4,840,560)"
     id="g267"><g
       style="fill:#000000"
       id="g266">
<rect
   width="100"
   height="100"
   id="rect265"
   x="0"
   y="0" />
</g></g><g
     transform="matrix(0.4,0,0,0.4,920,560)"
     id="g269"><g
       style="fill:#000000"
       id="g268">
<rect
   width="100"
   height="100"
   id="rect267"
   x="0"
   y="0" />
</g></g><g
     transform="matrix(0.4,0,0,0.4,960,560)"
     id="g271"><g
       style="fill:#000000"
       id="g270">
<rect
   width="100"
   height="100"
   id="rect269"
   x="0"
   y="0" />
</g></g><g
     transform="matrix(0.4,0,0,0.4,0,600)"
     id="g273"><g
       style="fill:#000000"
       id="g272">
<rect
   width="100"
   height="100"
   id="rect271"
   x="0"
   y="0" />
</g></g><g
     transform="matrix(0.4,0,0,0.4,120,600)"
     id="g275"><g
       style="fill:#000000"
       id="g274">
<rect
   width="100"
   height="100"
   id="rect273"
   x="0"
   y="0" />
</g></g><g
     transform="matrix(0.4,0,0,0.4,160,600)"
     id="g277"><g
       style="fill:#000000"
       id="g276">
<rect
   width="100"
   height="100"
   id="rect275"
   x="0"
   y="0" />
</g></g><g
     transform="matrix(0.4,0,0,0.4,360,600)"
     id="g279"><g
       style="fill:#000000"
       id="g278">
<rect
   width="100"
   height="100"
   id="rect277"
   x="0"
   y="0" />
</g></g><g
     transform="matrix(0.4,0,0,0.4,440,600)"
     id="g281"><g
       style="fill:#000000"
       id="g280">
<rect
   width="100"
   height="100"
   id="rect279"
   x="0"
   y="0" />
</g></g><g
     transform="matrix(0.4,0,0,0.4,560,600)"
     id="g283"><g
       style="fill:#000000"
       id="g282">
<rect
   width="100"
   height="100"
   id="rect281"
   x="0"
   y="0" />
</g></g><g
     transform="matrix(0.4,0,0,0.4,600,600)"
     id="g285"><g
       style="fill:#000000"
       id="g284">
<rect
   width="100"
   height="100"
   id="rect283"
   x="0"
   y="0" />
</g></g><g
     transform="matrix(0.4,0,0,0.4,680,600)"
     id="g287"><g
       style="fill:#000000"
       id="g286">
<rect
   width="100"
   height="100"
   id="rect285"
   x="0"
   y="0" />
</g></g><g
     transform="matrix(0.4,0,0,0.4,760,600)"
     id="g289"><g
       style="fill:#000000"
       id="g288">
<rect
   width="100"
   height="100"
   id="rect287"
   x="0"
   y="0" />
</g></g><g
     transform="matrix(0.4,0,0,0.4,800,600)"
     id="g291"><g
       style="fill:#000000"
       id="g290">
<rect
   width="100"
   height="100"
   id="rect289"
   x="0"
   y="0" />
</g></g><g
     transform="matrix(0.4,0,0,0.4,960,600)"
     id="g293"><g
       style="fill:#000000"
       id="g292">
<rect
   width="100"
   height="100"
   id="rect291"
   x="0"
   y="0" />
</g></g><g
     transform="matrix(0.4,0,0,0.4,0,640)"
     id="g295"><g
       style="fill:#000000"
       id="g294">
<rect
   width="100"
   height="100"
   id="rect293"
   x="0"
   y="0" />
</g></g><g
     transform="matrix(0.4,0,0,0.4,200,640)"
     id="g297"><g
       style="fill:#000000"
       id="g296">
<rect
   width="100"
   height="100"
   id="rect295"
   x="0"
   y="0" />
</g></g><g
     transform="matrix(0.4,0,0,0.4,240,640)"
     id="g299"><g
       style="fill:#000000"
       id="g298">
<rect
   width="100"
   height="100"
   id="rect297"
   x="0"
   y="0" />
</g></g><g
     transform="matrix(0.4,0,0,0.4,280,640)"
     id="g301"><g
       style="fill:#000000"
       id="g300">
<rect
   width="100"
   height="100"
   id="rect299"
   x="0"
   y="0" />
</g></g><g
     transform="matrix(0.4,0,0,0.4,320,640)"
     id="g303"><g
       style="fill:#000000"
       id="g302">
<rect
   width="100"
   height="100"
   id="rect301"
   x="0"
   y="0" />
</g></g><g
     transform="matrix(0.4,0,0,0.4,400,640)"
     id="g305"><g
       style="fill:#000000"
       id="g304">
<rect
   width="100"
   height="100"
   id="rect303"
   x="0"
   y="0" />
</g></g><g
     transform="matrix(0.4,0,0,0.4,440,640)"
     id="g307"><g
       style="fill:#000000"
       id="g306">
<rect
   width="100"
   height="100"
   id="rect305"
   x="0"
   y="0" />
</g></g><g
     transform="matrix(0.4,0,0,0.4,520,640)"
     id="g309"><g
       style="fill:#000000"
       id="g308">
<rect
   width="100"
   height="100"
   id="rect307"
   x="0"
   y="0" />
</g></g><g
     transform="matrix(0.4,0,0,0.4,560,640)"
     id="g311"><g
       style="fill:#000000"
       id="g310">
<rect
   width="100"
   height="100"
   id="rect309"
   x="0"
   y="0" />
</g></g><g
     transform="matrix(0.4,0,0,0.4,640,640)"
     id="g313"><g
       style="fill:#000000"
       id="g312">
<rect
   width="100"
   height="100"
   id="rect311"
   x="0"
   y="0" />
</g></g><g
     transform="matrix(0.4,0,0,0.4,680,640)"
     id="g315"><g
       style="fill:#000000"
       id="g314">
<rect
   width="100"
   height="100"
   id="rect313"
   x="0"
   y="0" />
</g></g><g
     transform="matrix(0.4,0,0,0.4,720,640)"
     id="g317"><g
       style="fill:#000000"
       id="g316">
<rect
   width="100"
   height="100"
   id="rect315"
   x="0"
   y="0" />
</g></g><g
     transform="matrix(0.4,0,0,0.4,760,640)"
     id="g319"><g
       style="fill:#000000"
       id="g318">
<rect
   width="100"
   height="100"
   id="rect317"
   x="0"
   y="0" />
</g></g><g
     transform="matrix(0.4,0,0,0.4,800,640)"
     id="g321"><g
       style="fill:#000000"
       id="g320">
<rect
   width="100"
   height="100"
   id="rect319"
   x="0"
   y="0" />
</g></g><g
     transform="matrix(0.4,0,0,0.4,880,640)"
     id="g323"><g
       style="fill:#000000"
       id="g322">
<rect
   width="100"
   height="100"
   id="rect321"
   x="0"
   y="0" />
</g></g><g
     transform="matrix(0.4,0,0,0.4,320,680)"
     id="g325"><g
       style="fill:#000000"
       id="g324">
<rect
   width="100"
   height="100"
   id="rect323"
   x="0"
   y="0" />
</g></g><g
     transform="matrix(0.4,0,0,0.4,480,680)"
     id="g327"><g
       style="fill:#000000"
       id="g326">
<rect
   width="100"
   height="100"
   id="rect325"
   x="0"
   y="0" />
</g></g><g
     transform="matrix(0.4,0,0,0.4,520,680)"
     id="g329"><g
       style="fill:#000000"
       id="g328">
<rect
   width="100"
   height="100"
   id="rect327"
   x="0"
   y="0" />
</g></g><g
     transform="matrix(0.4,0,0,0.4,640,680)"
     id="g331"><g
       style="fill:#000000"
       id="g330">
<rect
   width="100"
   height="100"
   id="rect329"
   x="0"
   y="0" />
</g></g><g
     transform="matrix(0.4,0,0,0.4,800,680)"
     id="g333"><g
       style="fill:#000000"
       id="g332">
<rect
   width="100"
   height="100"
   id="rect331"
   x="0"
   y="0" />
</g></g><g
     transform="matrix(0.4,0,0,0.4,840,680)"
     id="g335"><g
       style="fill:#000000"
       id="g334">
<rect
   width="100"
   height="100"
   id="rect333"
   x="0"
   y="0" />
</g></g><g
     transform="matrix(0.4,0,0,0.4,400,720)"
     id="g337"><g
       style="fill:#000000"
       id="g336">
<rect
   width="100"
   height="100"
   id="rect335"
   x="0"
   y="0" />
</g></g><g
     transform="matrix(0.4,0,0,0.4,520,720)"
     id="g339"><g
       style="fill:#000000"
       id="g338">
<rect
   width="100"
   height="100"
   id="rect337"
   x="0"
   y="0" />
</g></g><g
     transform="matrix(0.4,0,0,0.4,560,720)"
     id="g341"><g
       style="fill:#000000"
       id="g340">
<rect
   width="100"
   height="100"
   id="rect339"
   x="0"
   y="0" />
</g></g><g
     transform="matrix(0.4,0,0,0.4,640,720)"
     id="g343"><g
       style="fill:#000000"
       id="g342">
<rect
   width="100"
   height="100"
   id="rect341"
   x="0"
   y="0" />
</g></g><g
     transform="matrix(0.4,0,0,0.4,720,720)"
     id="g345"><g
       style="fill:#000000"
       id="g344">
<rect
   width="100"
   height="100"
   id="rect343"
   x="0"
   y="0" />
</g></g><g
     transform="matrix(0.4,0,0,0.4,800,720)"
     id="g347"><g
       style="fill:#000000"
       id="g346">
<rect
   width="100"
   height="100"
   id="rect345"
   x="0"
   y="0" />
</g></g><g
     transform="matrix(0.4,0,0,0.4,880,720)"
     id="g349"><g
       style="fill:#000000"
       id="g348">
<rect
   width="100"
   height="100"
   id="rect347"
   x="0"
   y="0" />
</g></g><g
     transform="matrix(0.4,0,0,0.4,920,720)"
     id="g351"><g
       style="fill:#000000"
       id="g350">
<rect
   width="100"
   height="100"
   id="rect349"
   x="0"
   y="0" />
</g></g><g
     transform="matrix(0.4,0,0,0.4,960,720)"
     id="g353"><g
       style="fill:#000000"
       id="g352">
<rect
   width="100"
   height="100"
   id="rect351"
   x="0"
   y="0" />
</g></g><g
     transform="matrix(0.4,0,0,0.4,320,760)"
     id="g355"><g
       style="fill:#000000"
       id="g354">
<rect
   width="100"
   height="100"
   id="rect353"
   x="0"
   y="0" />
</g></g><g
     transform="matrix(0.4,0,0,0.4,400,760)"
     id="g357"><g
       style="fill:#000000"
       id="g356">
<rect
   width="100"
   height="100"
   id="rect355"
   x="0"
   y="0" />
</g></g><g
     transform="matrix(0.4,0,0,0.4,480,760)"
     id="g359"><g
       style="fill:#000000"
       id="g358">
<rect
   width="100"
   height="100"
   id="rect357"
   x="0"
   y="0" />
</g></g><g
     transform="matrix(0.4,0,0,0.4,560,760)"
     id="g361"><g
       style="fill:#000000"
       id="g360">
<rect
   width="100"
   height="100"
   id="rect359"
   x="0"
   y="0" />
</g></g><g
     transform="matrix(0.4,0,0,0.4,640,760)"
     id="g363"><g
       style="fill:#000000"
       id="g362">
<rect
   width="100"
   height="100"
   id="rect361"
   x="0"
   y="0" />
</g></g><g
     transform="matrix(0.4,0,0,0.4,800,760)"
     id="g365"><g
       style="fill:#000000"
       id="g364">
<rect
   width="100"
   height="100"
   id="rect363"
   x="0"
   y="0" />
</g></g><g
     transform="matrix(0.4,0,0,0.4,840,760)"
     id="g367"><g
       style="fill:#000000"
       id="g366">
<rect
   width="100"
   height="100"
   id="rect365"
   x="0"
   y="0" />
</g></g><g
     transform="matrix(0.4,0,0,0.4,920,760)"
     id="g369"><g
       style="fill:#000000"
       id="g368">
<rect
   width="100"
   height="100"
   id="rect367"
   x="0"
   y="0" />
</g></g><g
     transform="matrix(0.4,0,0,0.4,320,800)"
     id="g371"><g
       style="fill:#000000"
       id="g370">
<rect
   width="100"
   height="100"
   id="rect369"
   x="0"
   y="0" />
</g></g><g
     transform="matrix(0.4,0,0,0.4,480,800)"
     id="g373"><g
       style="fill:#000000"
       id="g372">
<rect
   width="100"
   height="100"
   id="rect371"
   x="0"
   y="0" />
</g></g><g
     transform="matrix(0.4,0,0,0.4,520,800)"
     id="g375"><g
       style="fill:#000000"
       id="g374">
<rect
   width="100"
   height="100"
   id="rect373"
   x="0"
   y="0" />
</g></g><g
     transform="matrix(0.4,0,0,0.4,560,800)"
     id="g377"><g
       style="fill:#000000"
       id="g376">
<rect
   width="100"
   height="100"
   id="rect375"
   x="0"
   y="0" />
</g></g><g
     transform="matrix(0.4,0,0,0.4,600,800)"
     id="g379"><g
       style="fill:#000000"
       id="g378">
<rect
   width="100"
   height="100"
   id="rect377"
   x="0"
   y="0" />
</g></g><g
     transform="matrix(0.4,0,0,0.4,640,800)"
     id="g381"><g
       style="fill:#000000"
       id="g380">
<rect
   width="100"
   height="100"
   id="rect379"
   x="0"
   y="0" />
</g></g><g
     transform="matrix(0.4,0,0,0.4,680,800)"
     id="g383"><g
       style="fill:#000000"
       id="g382">
<rect
   width="100"
   height="100"
   id="rect381"
   x="0"
   y="0" />
</g></g><g
     transform="matrix(0.4,0,0,0.4,720,800)"
     id="g385"><g
       style="fill:#000000"
       id="g384">
<rect
   width="100"
   height="100"
   id="rect383"
   x="0"
   y="0" />
</g></g><g
     transform="matrix(0.4,0,0,0.4,760,800)"
     id="g387"><g
       style="fill:#000000"
       id="g386">
<rect
   width="100"
   height="100"
   id="rect385"
   x="0"
   y="0" />
</g></g><g
     transform="matrix(0.4,0,0,0.4,800,800)"
     id="g389"><g
       style="fill:#000000"
       id="g388">
<rect
   width="100"
   height="100"
   id="rect387"
   x="0"
   y="0" />
</g></g><g
     transform="matrix(0.4,0,0,0.4,880,800)"
     id="g391"><g
       style="fill:#000000"
       id="g390">
<rect
   width="100"
   height="100"
   id="rect389"
   x="0"
   y="0" />
</g></g><g
     transform="matrix(0.4,0,0,0.4,920,800)"
     id="g393"><g
       style="fill:#000000"
       id="g392">
<rect
   width="100"
   height="100"
   id="rect391"
   x="0"
   y="0" />
</g></g><g
     transform="matrix(0.4,0,0,0.4,960,800)"
     id="g395"><g
       style="fill:#000000"
       id="g394">
<rect
   width="100"
   height="100"
   id="rect393"
   x="0"
   y="0" />
</g></g><g
     transform="matrix(0.4,0,0,0.4,320,840)"
     id="g397"><g
       style="fill:#000000"
       id="g396">
<rect
   width="100"
   height="100"
   id="rect395"
   x="0"
   y="0" />
</g></g><g
     transform="matrix(0.4,0,0,0.4,360,840)"
     id="g399"><g
       style="fill:#000000"
       id="g398">
<rect
   width="100"
   height="100"
   id="rect397"
   x="0"
   y="0" />
</g></g><g
     transform="matrix(0.4,0,0,0.4,400,840)"
     id="g401"><g
       style="fill:#000000"
       id="g400">
<rect
   width="100"
   height="100"
   id="rect399"
   x="0"
   y="0" />
</g></g><g
     transform="matrix(0.4,0,0,0.4,520,840)"
     id="g403"><g
       style="fill:#000000"
       id="g402">
<rect
   width="100"
   height="100"
   id="rect401"
   x="0"
   y="0" />
</g></g><g
     transform="matrix(0.4,0,0,0.4,720,840)"
     id="g405"><g
       style="fill:#000000"
       id="g404">
<rect
   width="100"
   height="100"
   id="rect403"
   x="0"
   y="0" />
</g></g><g
     transform="matrix(0.4,0,0,0.4,800,840)"
     id="g407"><g
       style="fill:#000000"
       id="g406">
<rect
   width="100"
   height="100"
   id="rect405"
   x="0"
   y="0" />
</g></g><g
     transform="matrix(0.4,0,0,0.4,840,840)"
     id="g409"><g
       style="fill:#000000"
       id="g408">
<rect
   width="100"
   height="100"
   id="rect407"
   x="0"
   y="0" />
</g></g><g
     transform="matrix(0.4,0,0,0.4,880,840)"
     id="g411"><g
       style="fill:#000000"
       id="g410">
<rect
   width="100"
   height="100"
   id="rect409"
   x="0"
   y="0" />
</g></g><g
     transform="matrix(0.4,0,0,0.4,920,840)"
     id="g413"><g
       style="fill:#000000"
       id="g412">
<rect
   width="100"
   height="100"
   id="rect411"
   x="0"
   y="0" />
</g></g><g
     transform="matrix(0.4,0,0,0.4,960,840)"
     id="g415"><g
       style="fill:#000000"
       id="g414">
<rect
   width="100"
   height="100"
   id="rect413"
   x="0"
   y="0" />
</g></g><g
     transform="matrix(0.4,0,0,0.4,320,880)"
     id="g417"><g
       style="fill:#000000"
       id="g416">
<rect
   width="100"
   height="100"
   id="rect415"
   x="0"
   y="0" />
</g></g><g
     transform="matrix(0.4,0,0,0.4,360,880)"
     id="g419"><g
       style="fill:#000000"
       id="g418">
<rect
   width="100"
   height="100"
   id="rect417"
   x="0"
   y="0" />
</g></g><g
     transform="matrix(0.4,0,0,0.4,440,880)"
     id="g421"><g
       style="fill:#000000"
       id="g420">
<rect
   width="100"
   height="100"
   id="rect419"
   x="0"
   y="0" />
</g></g><g
     transform="matrix(0.4,0,0,0.4,480,880)"
     id="g423"><g
       style="fill:#000000"
       id="g422">
<rect
   width="100"
   height="100"
   id="rect421"
   x="0"
   y="0" />
</g></g><g
     transform="matrix(0.4,0,0,0.4,560,880)"
     id="g425"><g
       style="fill:#000000"
       id="g424">
<rect
   width="100"
   height="100"
   id="rect423"
   x="0"
   y="0" />
</g></g><g
     transform="matrix(0.4,0,0,0.4,840,880)"
     id="g427"><g
       style="fill:#000000"
       id="g426">
<rect
   width="100"
   height="100"
   id="rect425"
   x="0"
   y="0" />
</g></g><g
     transform="matrix(0.4,0,0,0.4,880,880)"
     id="g429"><g
       style="fill:#000000"
       id="g428">
<rect
   width="100"
   height="100"
   id="rect427"
   x="0"
   y="0" />
</g></g><g
     transform="matrix(0.4,0,0,0.4,960,880)"
     id="g431"><g
       style="fill:#000000"
       id="g430">
<rect
   width="100"
   height="100"
   id="rect429"
   x="0"
   y="0" />
</g></g><g
     transform="matrix(0.4,0,0,0.4,360,920)"
     id="g433"><g
       style="fill:#000000"
       id="g432">
<rect
   width="100"
   height="100"
   id="rect431"
   x="0"
   y="0" />
</g></g><g
     transform="matrix(0.4,0,0,0.4,440,920)"
     id="g435"><g
       style="fill:#000000"
       id="g434">
<rect
   width="100"
   height="100"
   id="rect433"
   x="0"
   y="0" />
</g></g><g
     transform="matrix(0.4,0,0,0.4,560,920)"
     id="g437"><g
       style="fill:#000000"
       id="g436">
<rect
   width="100"
   height="100"
   id="rect435"
   x="0"
   y="0" />
</g></g><g
     transform="matrix(0.4,0,0,0.4,600,920)"
     id="g439"><g
       style="fill:#000000"
       id="g438">
<rect
   width="100"
   height="100"
   id="rect437"
   x="0"
   y="0" />
</g></g><g
     transform="matrix(0.4,0,0,0.4,640,920)"
     id="g441"><g
       style="fill:#000000"
       id="g440">
<rect
   width="100"
   height="100"
   id="rect439"
   x="0"
   y="0" />
</g></g><g
     transform="matrix(0.4,0,0,0.4,680,920)"
     id="g443"><g
       style="fill:#000000"
       id="g442">
<rect
   width="100"
   height="100"
   id="rect441"
   x="0"
   y="0" />
</g></g><g
     transform="matrix(0.4,0,0,0.4,760,920)"
     id="g445"><g
       style="fill:#000000"
       id="g444">
<rect
   width="100"
   height="100"
   id="rect443"
   x="0"
   y="0" />
</g></g><g
     transform="matrix(0.4,0,0,0.4,800,920)"
     id="g447"><g
       style="fill:#000000"
       id="g446">
<rect
   width="100"
   height="100"
   id="rect445"
   x="0"
   y="0" />
</g></g><g
     transform="matrix(0.4,0,0,0.4,840,920)"
     id="g449"><g
       style="fill:#000000"
       id="g448">
<rect
   width="100"
   height="100"
   id="rect447"
   x="0"
   y="0" />
</g></g><g
     transform="matrix(0.4,0,0,0.4,960,920)"
     id="g451"><g
       style="fill:#000000"
       id="g450">
<rect
   width="100"
   height="100"
   id="rect449"
   x="0"
   y="0" />
</g></g><g
     transform="matrix(0.4,0,0,0.4,320,960)"
     id="g453"><g
       style="fill:#000000"
       id="g452">
<rect
   width="100"
   height="100"
   id="rect451"
   x="0"
   y="0" />
</g></g><g
     transform="matrix(0.4,0,0,0.4,360,960)"
     id="g455"><g
       style="fill:#000000"
       id="g454">
<rect
   width="100"
   height="100"
   id="rect453"
   x="0"
   y="0" />
</g></g><g
     transform="matrix(0.4,0,0,0.4,440,960)"
     id="g457"><g
       style="fill:#000000"
       id="g456">
<rect
   width="100"
   height="100"
   id="rect455"
   x="0"
   y="0" />
</g></g><g
     transform="matrix(0.4,0,0,0.4,480,960)"
     id="g459"><g
       style="fill:#000000"
       id="g458">
<rect
   width="100"
   height="100"
   id="rect457"
   x="0"
   y="0" />
</g></g><g
     transform="matrix(0.4,0,0,0.4,760,960)"
     id="g461"><g
       style="fill:#000000"
       id="g460">
<rect
   width="100"
   height="100"
   id="rect459"
   x="0"
   y="0" />
</g></g><g
     transform="matrix(0.4,0,0,0.4,800,960)"
     id="g463"><g
       style="fill:#000000"
       id="g462">
<rect
   width="100"
   height="100"
   id="rect461"
   x="0"
   y="0" />
</g></g><g
     transform="matrix(0.4,0,0,0.4,840,960)"
     id="g465"><g
       style="fill:#000000"
       id="g464">
<rect
   width="100"
   height="100"
   id="rect463"
   x="0"
   y="0" />
</g></g><g
     transform="matrix(0.4,0,0,0.4,880,960)"
     id="g467"><g
       style="fill:#000000"
       id="g466">
<rect
   width="100"
   height="100"
   id="rect465"
   x="0"
   y="0" />
</g></g><g
     transform="matrix(0.4,0,0,0.4,920,960)"
     id="g469"><g
       style="fill:#000000"
       id="g468">
<rect
   width="100"
   height="100"
   id="rect467"
   x="0"
   y="0" />
</g></g><g
     transform="matrix(0.4,0,0,0.4,960,960)"
     id="g471"><g
       style="fill:#000000"
       id="g470">
<rect
   width="100"
   height="100"
   id="rect469"
   x="0"
   y="0" />
</g></g><g
     transform="scale(2.8)"
     id="g474"><g
       style="fill:#000000"
       id="g473">
<g
   id="g472">
	<rect
   x="15"
   y="15"
   style="fill:none"
   width="70"
   height="70"
   id="rect471" />
	<path
   d="M 85,0 H 15 0 v 15 70 15 h 15 70 15 V 85 15 0 Z m 0,85 H 15 V 15 h 70 z"
   id="path471" />
</g>
</g></g><g
     transform="matrix(2.8,0,0,2.8,720,0)"
     id="g477"><g
       style="fill:#000000"
       id="g476">
<g
   id="g475">
	<rect
   x="15"
   y="15"
   style="fill:none"
   width="70"
   height="70"
   id="rect474" />
	<path
   d="M 85,0 H 15 0 v 15 70 15 h 15 70 15 V 85 15 0 Z m 0,85 H 15 V 15 h 70 z"
   id="path474" />
</g>
</g></g><g
     transform="matrix(2.8,0,0,2.8,0,720)"
     id="g480"><g
       style="fill:#000000"
       id="g479">
<g
   id="g478">
	<rect
   x="15"
   y="15"
   style="fill:none"
   width="70"
   height="70"
   id="rect477" />
	<path
   d="M 85,0 H 15 0 v 15 70 15 h 15 70 15 V 85 15 0 Z m 0,85 H 15 V 15 h 70 z"
   id="path477" />
</g>
</g></g><g
     transform="matrix(1.2,0,0,1.2,80,80)"
     id="g482"><g
       style="fill:#000000"
       id="g481">
<rect
   width="100"
   height="100"
   id="rect480"
   x="0"
   y="0" />
</g></g><g
     transform="matrix(1.2,0,0,1.2,800,80)"
     id="g484"><g
       style="fill:#000000"
       id="g483">
<rect
   width="100"
   height="100"
   id="rect482"
   x="0"
   y="0" />
</g></g><g
     transform="matrix(1.2,0,0,1.2,80,800)"
     id="g486"><g
       style="fill:#000000"
       id="g485">
<rect
   width="100"
   height="100"
   id="rect484"
   x="0"
   y="0" />
</g></g></g></svg>
